HIERARCHY
ROOT Hips
{
    OFFSET 0.000000 0.000000 0.000000
    CHANNELS 6 Xposition Yposition Zposition Zrotation Yrotation Xrotation
    JOINT LeftUpLeg
    {
        OFFSET 8.880786 -10.992074 2.946151
        CHANNELS 3 Zrotation Yrotation Xrotation
        JOINT LeftLeg
        {
            OFFSET 14.694236 -40.372078 0.000000
            CHANNELS 3 Zrotation Yrotation Xrotation
            JOINT LeftFoot
            {
                OFFSET 15.683248 -43.089348 0.000000
                CHANNELS 3 Zrotation Yrotation Xrotation
                JOINT LeftToeBase
                {
                    OFFSET 1.120244 -3.077835 12.895535
                    CHANNELS 3 Zrotation Yrotation Xrotation
                    End Site
                    {
                        OFFSET 0.000000 0.000000 0.000000
                    }
                }
            }
        }
    }
    JOINT RightUpLeg
    {
        OFFSET -9.117230 -10.992074 2.946151
        CHANNELS 3 Zrotation Yrotation Xrotation
        JOINT RightLeg
        {
            OFFSET -14.327125 -39.363480 0.000000
            CHANNELS 3 Zrotation Yrotation Xrotation
            JOINT RightFoot
            {
                OFFSET -15.847331 -43.540169 0.000000
                CHANNELS 3 Zrotation Yrotation Xrotation
                JOINT RightToeBase
                {
                    OFFSET -1.723574 -4.735539 12.914443
                    CHANNELS 3 Zrotation Yrotation Xrotation
                    End Site
                    {
                        OFFSET 0.000000 0.000000 0.000000
                    }
                }
            }
        }
    }
    JOINT Spine
    {
        OFFSET -0.247281 11.260408 -1.116349
        CHANNELS 3 Zrotation Yrotation Xrotation
        JOINT Spine1
        {
            OFFSET -0.110574 11.361895 -0.246773
            CHANNELS 3 Zrotation Yrotation Xrotation
            JOINT Neck1
            {
                OFFSET -0.308128 9.985678 0.547958
                CHANNELS 3 Zrotation Yrotation Xrotation
                JOINT Head
                {
                    OFFSET 0.534017 10.011359 -0.630592
                    CHANNELS 3 Zrotation Yrotation Xrotation
                    End Site
                    {
                        OFFSET 0.000000 0.000000 0.000000
                    }
                }
            }
            JOINT LeftShoulder
            {
                OFFSET 0.000000 0.000000 0.000000
                CHANNELS 3 Zrotation Yrotation Xrotation
                JOINT LeftArm
                {
                    OFFSET 19.807442 7.000975 -1.629313
                    CHANNELS 3 Zrotation Yrotation Xrotation
                    JOINT LeftForeArm
                    {
                        OFFSET 30.490372 -0.000000 0.000000
                        CHANNELS 3 Zrotation Yrotation Xrotation
                        JOINT LeftHand
                        {
                            OFFSET 20.802944 -0.000000 0.000000
                            CHANNELS 3 Zrotation Yrotation Xrotation
                            End Site
                            {
                                OFFSET 0.000000 0.000000 0.000000
                            }
                        }
                    }
                }
            }
            JOINT RightShoulder
            {
                OFFSET 0.000000 0.000000 0.000000
                CHANNELS 3 Zrotation Yrotation Xrotation
                JOINT RightArm
                {
                    OFFSET -16.672035 7.882348 -1.543518
                    CHANNELS 3 Zrotation Yrotation Xrotation
                    JOINT RightForeArm
                    {
                        OFFSET -34.468658 -0.000000 -0.000000
                        CHANNELS 3 Zrotation Yrotation Xrotation
                        JOINT RightHand
                        {
                            OFFSET -20.492107 -0.000000 0.000000
                            CHANNELS 3 Zrotation Yrotation Xrotation
                            End Site
                            {
                                OFFSET 0.000000 0.000000 0.000000
                            }
                        }
                    }
                }
            }
        }
    }
}
MOTION
Frames: 18
Frame Time: 0.016667
-10.649290 99.253387 8.313637 0.813985 21.073799 -0.519003 -24.492609 -9.236203 -4.823901 1.942401 8.745006 25.000811 0.570300 -5.493100 -13.456604 0.176900 2.709201 7.470203 16.493404 20.159599 -12.926399 -5.722703 -14.154105 43.858303 -0.590500 -12.672801 -24.088305 -0.052500 1.478100 -4.065202 -5.697963 3.320762 8.504025 0.561500 0.843000 -1.832402 2.472048 7.951936 21.455549 3.709701 2.178101 10.528701 0.000000 0.000000 0.000000 -79.450920 0.150199 21.116711 14.940706 -24.063499 -3.201700 0.000000 0.000000 11.001300 0.000000 0.000000 0.000000 82.052002 -8.926700 19.632999 -19.622606 30.184898 -5.340302 0.000000 0.000000 23.079500 
-10.238942 99.431747 9.042893 2.596992 22.765114 -0.140009 -26.512299 -8.970103 -3.602601 1.857401 8.562504 24.436102 0.526400 -6.842400 -13.065604 0.201300 2.889400 7.970903 14.686005 20.568111 -12.298604 -5.187999 -13.592501 41.628815 -0.729500 -11.728106 -24.322922 -0.024200 1.005300 -2.763401 -7.626915 2.913575 8.371155 0.822800 0.693900 -1.495000 2.458798 7.779410 21.834887 3.538702 2.159101 10.319200 0.000000 0.000000 0.000000 -79.285904 0.327402 21.424301 15.205797 -24.432104 -3.310600 0.000000 0.000000 10.514700 0.000000 0.000000 0.000000 82.073799 -9.194100 19.829901 -19.451609 29.976009 -5.254603 0.000000 0.000000 22.676600 
-10.335461 99.407478 9.187390 1.019983 23.603510 -0.074002 -24.637707 -9.716399 -4.065400 1.803002 8.443107 24.068205 0.475100 -7.048600 -12.492300 0.210700 2.955300 8.154400 16.136005 22.732805 -13.251303 -4.696604 -13.033806 39.495136 -0.640301 -11.246306 -23.078306 -0.098000 2.018700 -5.557398 -5.926554 3.087063 8.419380 0.572300 0.774800 -2.003701 2.535877 7.741827 21.700891 3.678302 2.149000 10.149504 0.000000 0.000000 0.000000 -79.249817 0.205500 21.573914 15.494506 -24.830507 -3.430902 0.000000 0.000000 10.287400 0.000000 0.000000 0.000000 82.025711 -9.142399 19.724201 -19.384317 29.893316 -5.221005 0.000000 0.000000 22.488899 
-10.212977 99.423843 9.588142 1.145987 24.768009 0.213986 -24.674316 -10.056507 -4.112001 1.827499 8.497096 24.234499 0.436600 -7.916105 -12.204907 0.223400 3.042601 8.397396 15.781197 24.039400 -13.450097 -4.200302 -12.422298 37.242718 -0.716100 -9.303504 -21.951900 -0.170600 2.661101 -7.336500 -5.991961 3.245673 8.558451 0.525000 0.816700 -2.072700 2.427479 7.534151 21.436167 3.715102 2.084400 10.209407 0.000000 0.000000 0.000000 -79.218094 -0.122599 21.613205 15.660593 -25.058294 -3.500998 0.000000 0.000000 10.236500 0.000000 0.000000 0.000000 82.063454 -9.050907 19.411200 -19.337902 29.836409 -5.197901 0.000000 0.000000 22.638000 
-10.069610 99.492142 10.044210 1.359007 25.896706 0.531016 -24.802900 -10.290007 -3.691301 1.742400 8.307604 23.652308 0.377000 -8.570700 -11.657997 0.239900 3.152202 8.702804 15.273804 25.323193 -13.625796 -3.724599 -11.784599 34.974087 -0.717801 -7.013505 -20.057100 -0.224400 3.049301 -8.416000 -6.186930 3.259295 8.520049 0.675000 0.820000 -2.037700 2.209380 7.414324 21.423897 3.785204 2.038801 10.215205 0.000000 0.000000 0.000000 -79.356712 -0.145600 21.655899 15.908909 -25.397015 -3.606803 0.000000 0.000000 9.966402 0.000000 0.000000 0.000000 81.856895 -9.035798 19.451908 -19.247299 29.724813 -5.152901 0.000000 0.000000 22.190308 
-9.912695 99.569473 10.473749 1.454985 26.941504 0.742998 -24.865709 -10.635106 -3.168301 1.657199 8.112200 23.055298 0.325500 -9.068596 -11.183800 0.290400 3.465499 9.577500 14.972697 27.256714 -13.380108 -3.272302 -11.123304 32.696732 -0.731600 -5.133400 -18.825308 -0.274900 3.372500 -9.317507 -6.160340 3.357759 8.593284 0.666600 0.847800 -2.011400 2.010759 7.237956 21.379730 3.755901 1.987301 10.192404 0.000000 0.000000 0.000000 -79.543823 -0.280998 21.430698 16.106995 -25.665594 -3.692198 0.000000 0.000000 9.764005 0.000000 0.000000 0.000000 81.744102 -9.034498 19.356701 -19.279613 29.764620 -5.168904 0.000000 0.000000 22.178207 
-9.734332 99.609543 10.894257 1.417992 28.089701 0.910010 -24.769707 -10.858704 -2.743602 1.577101 7.923204 22.481216 0.249100 -9.715303 -10.469004 0.351300 3.808002 10.537200 14.753205 28.629604 -13.252200 -2.862802 -10.469605 30.511223 -0.722600 -3.317200 -17.596699 -0.293500 3.483701 -9.628504 -5.888595 3.356927 8.678218 0.573800 0.850600 -1.902801 1.947458 7.341854 21.151276 3.677100 2.025601 10.084904 0.000000 0.000000 0.000000 -79.687401 -0.507000 21.350801 16.236509 -25.840212 -3.748401 0.000000 0.000000 9.408704 0.000000 0.000000 0.000000 81.537903 -8.868304 19.335199 -19.247509 29.725100 -5.153001 0.000000 0.000000 21.817600 
-9.609591 99.700989 11.351454 1.676009 29.283298 1.312007 -24.873095 -11.114100 -2.449400 1.509201 7.758606 21.983301 0.174400 -10.462296 -9.847402 0.389000 4.005002 11.090701 14.152900 30.565903 -13.167900 -2.515801 -9.866500 28.545614 -0.716000 -2.220900 -16.938707 -0.264600 3.308902 -9.140004 -6.091022 3.134094 8.664330 0.794500 0.787000 -1.892700 1.741512 7.575517 21.159023 3.744600 2.080200 10.056300 0.000000 0.000000 0.000000 -79.971397 -0.457897 20.960598 16.399807 -26.059700 -3.819899 0.000000 0.000000 9.435798 0.000000 0.000000 0.000000 81.063194 -8.674800 19.853098 -19.134302 29.585207 -5.097002 0.000000 0.000000 21.215694 
-9.474689 99.763649 11.820502 1.206994 30.486799 1.224990 -24.261599 -11.192706 -2.163000 1.454501 7.623103 21.574900 0.089800 -11.272701 -9.171803 0.419500 4.157302 11.519601 14.375306 31.956392 -13.056298 -2.235302 -9.339803 26.864305 -0.682100 -1.947999 -16.424608 -0.374300 3.929302 -10.877908 -5.423087 2.924361 8.709383 0.620000 0.738100 -1.923300 1.804252 7.956782 21.365604 3.726301 2.201999 9.978200 0.000000 0.000000 0.000000 -80.157692 -0.412601 20.588501 16.420893 -26.088097 -3.829198 0.000000 0.000000 9.404604 0.000000 0.000000 0.000000 80.894897 -8.618898 19.936005 -19.073210 29.509504 -5.066805 0.000000 0.000000 21.156401 
-9.308180 99.793556 12.316646 1.321988 31.785915 1.295015 -24.335300 -11.623000 -1.535702 1.405900 7.500097 21.205801 0.033100 -11.831903 -8.758400 0.440100 4.256804 11.800305 14.195307 32.342491 -13.064206 -2.035099 -8.938799 25.604000 -0.647600 -1.582400 -15.854904 -0.342100 3.758202 -10.397300 -5.109932 3.219671 8.961599 0.448700 0.823600 -1.777800 1.661477 7.639495 21.203840 3.703899 2.111899 10.091003 0.000000 0.000000 0.000000 -80.315399 -0.609499 21.318514 16.491705 -26.182806 -3.860405 0.000000 0.000000 8.784497 0.000000 0.000000 0.000000 80.776329 -8.605207 19.443806 -19.092508 29.533413 -5.076301 0.000000 0.000000 20.805799 
-9.167635 99.799210 12.860766 1.609976 32.993313 1.471015 -24.451895 -11.630098 -1.011500 1.342501 7.335807 20.714108 -0.040100 -12.647004 -8.334896 0.442100 4.266298 11.827000 13.979911 32.463032 -13.203908 -1.910200 -8.676402 24.788103 -0.614400 -1.203700 -15.290309 -0.296100 3.498700 -9.670400 -5.155034 3.293838 9.075433 0.477701 0.843400 -1.633001 1.510896 7.895629 21.331816 3.654100 2.187299 10.199003 0.000000 0.000000 0.000000 -80.503601 -0.615795 21.463301 16.556904 -26.269897 -3.889201 0.000000 0.000000 8.942700 0.000000 0.000000 0.000000 80.567604 -8.560202 19.362404 -19.090399 29.530815 -5.075299 0.000000 0.000000 20.567596 
-9.037249 99.805405 13.413917 1.623991 34.360706 1.515985 -24.294502 -11.846694 -0.570100 1.312801 7.257404 20.480209 -0.136201 -13.801000 -7.943000 0.455700 4.330599 12.008702 14.076701 32.210896 -13.292501 -1.808400 -8.455000 24.105000 -0.564800 -0.937100 -14.567015 -0.272200 3.355701 -9.270606 -4.903697 3.159075 9.154116 0.515000 0.810400 -1.510800 1.483452 8.362234 21.566708 3.891000 2.304800 10.295900 0.000000 0.000000 0.000000 -80.698021 -0.598700 21.318214 16.476103 -26.161900 -3.853500 0.000000 0.000000 9.175305 0.000000 0.000000 0.000000 80.396599 -8.645001 19.109100 -19.171497 29.631300 -5.115402 0.000000 0.000000 20.461201 
-8.907992 99.761383 13.989645 1.338024 35.587830 1.282993 -23.846901 -11.902503 -0.247101 1.319201 7.274404 20.530901 -0.245700 -14.828208 -7.373200 0.504500 4.553000 12.638003 14.604711 32.045113 -13.036206 -1.728900 -8.276904 23.558300 -0.495700 -0.800200 -13.614000 -0.351400 3.808800 -10.539400 -4.296144 3.048460 9.315336 0.394400 0.789701 -1.536600 1.525686 8.540237 21.983526 3.779801 2.378998 10.311696 0.000000 0.000000 0.000000 -80.846329 -0.226599 21.432692 16.607910 -26.337999 -3.911801 0.000000 0.000000 8.888700 0.000000 0.000000 0.000000 80.161713 -8.543903 19.195309 -19.027697 29.453012 -5.044400 0.000000 0.000000 20.326899 
-8.769139 99.705498 14.599240 1.293000 36.914307 1.213981 -23.602001 -11.994205 0.092000 1.317801 7.270903 20.520399 -0.361600 -15.910400 -6.878200 0.525600 4.645803 12.901110 14.898507 31.874796 -12.740808 -1.701200 -8.213901 23.365606 -0.435500 -0.368200 -12.604710 -0.340800 3.751301 -10.377998 -4.049105 2.947473 9.219784 0.385700 0.767500 -1.684501 1.696787 8.522498 22.855188 3.524301 2.426701 10.308400 0.000000 0.000000 0.000000 -80.822601 0.512300 21.584200 16.683296 -26.438398 -3.945298 0.000000 0.000000 8.807004 0.000000 0.000000 0.000000 79.840012 -8.636910 19.540703 -18.769304 29.131001 -4.918000 0.000000 0.000000 19.966311 
-8.609404 99.612938 15.273182 1.984025 38.257915 1.647999 -23.928108 -11.871900 0.349801 1.311300 7.253399 20.468399 -0.509300 -17.111507 -6.203103 0.588700 4.912603 13.659509 14.611798 31.741600 -12.412205 -1.725999 -8.270400 23.538601 -0.396300 -0.069300 -11.918905 -0.365000 3.880602 -10.741108 -4.445541 2.763729 9.018805 0.621000 0.711500 -1.461100 1.667646 9.048458 23.325500 3.589202 2.580400 10.394200 0.000000 0.000000 0.000000 -81.102615 0.737299 20.940504 16.574100 -26.292902 -3.896803 0.000000 0.000000 9.206200 0.000000 0.000000 0.000000 79.503304 -8.658403 19.661602 -18.765608 29.126400 -4.916300 0.000000 0.000000 19.543808 
-8.447974 99.510208 15.976474 2.018011 39.647400 1.752008 -23.638796 -11.885804 0.594400 1.298899 7.220604 20.370501 -0.646300 -18.276510 -5.779400 0.571300 4.840700 13.454800 14.950099 31.546499 -12.086300 -1.793301 -8.421706 24.002308 -0.359600 0.100900 -11.292600 -0.111100 2.148700 -5.916702 -4.160806 3.058183 8.643847 0.342000 0.801700 -1.290900 2.168633 8.953808 23.908964 3.466202 2.615401 10.467309 0.000000 0.000000 0.000000 -80.889702 1.000904 21.302200 16.519798 -26.220392 -3.872801 0.000000 0.000000 9.396606 0.000000 0.000000 0.000000 79.888924 -8.999900 18.866310 -18.745306 29.100906 -4.906302 0.000000 0.000000 19.537100 
-8.284286 99.435135 16.717020 2.885009 40.821133 2.195016 -24.180807 -12.117203 1.371101 1.255899 7.104401 20.025087 -0.741900 -18.894600 -5.295400 0.609300 4.996100 13.897307 14.773609 31.393015 -11.593300 -1.894901 -8.643605 24.686605 -0.338700 -0.683200 -11.261710 -0.044400 1.360401 -3.741000 -4.698444 3.483927 8.583257 0.279300 0.913400 -1.031401 2.587282 8.987143 24.083942 3.503600 2.660000 10.619000 0.000000 0.000000 0.000000 -80.521400 0.982695 22.099001 16.495710 -26.188105 -3.862102 0.000000 0.000000 8.584097 0.000000 0.000000 0.000000 80.318405 -9.002800 17.990902 -18.699495 29.043495 -4.884099 0.000000 0.000000 19.490507 
-8.123421 99.452629 17.417490 3.234987 42.019894 2.526006 -24.209309 -12.453802 2.018001 1.186100 6.911500 19.453300 -0.834800 -19.356100 -4.651102 0.653000 5.168704 14.390507 14.853706 31.125029 -11.690907 -2.015600 -8.898602 25.478598 -0.269700 -3.007102 -11.389204 -0.065100 1.646700 -4.530200 -4.591633 3.550760 8.163745 0.278300 0.938700 -0.953900 2.597003 9.261338 24.818260 3.524201 2.760001 10.649206 0.000000 0.000000 0.000000 -80.566010 1.673203 21.518803 16.493301 -26.185011 -3.861102 0.000000 0.000000 9.380504 0.000000 0.000000 0.000000 80.211906 -9.152003 17.785809 -18.571901 28.883312 -4.822302 0.000000 0.000000 19.062300 
